<mxfile host="app.diagrams.net" modified="2022-06-16T04:46:57.434Z" agent="5.0 (Windows NT 10.0; Win64; x64) AppleWebKit/537.36 (KHTML, like Gecko) Chrome/102.0.0.0 Safari/537.36" etag="5TkowBWit_0sJlnrUrjE" version="20.0.1" type="github" pages="3">
  <diagram id="CiIdyIM88pYDMpZTxhpQ" name="Page-1">
    <mxGraphModel dx="1865" dy="547" grid="1" gridSize="10" guides="1" tooltips="1" connect="1" arrows="1" fold="1" page="1" pageScale="1" pageWidth="827" pageHeight="1169" math="0" shadow="0">
      <root>
        <mxCell id="0" />
        <mxCell id="1" parent="0" />
        <mxCell id="9mC6WxwAKgtIo9bbNM0V-1" value="" style="rounded=0;whiteSpace=wrap;html=1;shadow=0;gradientColor=none;" parent="1" vertex="1">
          <mxGeometry x="-130" y="40" width="1040" height="590" as="geometry" />
        </mxCell>
        <mxCell id="9mC6WxwAKgtIo9bbNM0V-2" value="" style="rounded=1;whiteSpace=wrap;html=1;fillColor=#dae8fc;strokeColor=#6c8ebf;" parent="1" vertex="1">
          <mxGeometry x="-120" y="60" width="390" height="190" as="geometry" />
        </mxCell>
        <mxCell id="9mC6WxwAKgtIo9bbNM0V-3" value="" style="rounded=1;whiteSpace=wrap;html=1;fillColor=#e1d5e7;strokeColor=#9673a6;" parent="1" vertex="1">
          <mxGeometry x="294" y="60" width="286" height="190" as="geometry" />
        </mxCell>
        <mxCell id="9mC6WxwAKgtIo9bbNM0V-4" value="" style="rounded=1;whiteSpace=wrap;html=1;fillColor=#dae8fc;strokeColor=#6c8ebf;" parent="1" vertex="1">
          <mxGeometry x="600" y="60" width="300" height="189" as="geometry" />
        </mxCell>
        <mxCell id="9mC6WxwAKgtIo9bbNM0V-6" value="&lt;span style=&quot;font-size: 14px;&quot;&gt;E-shop App&lt;/span&gt;" style="text;html=1;resizable=0;autosize=1;align=center;verticalAlign=middle;points=[];fillColor=none;strokeColor=none;rounded=0;shadow=0;" parent="1" vertex="1">
          <mxGeometry x="20" y="61" width="90" height="20" as="geometry" />
        </mxCell>
        <mxCell id="9mC6WxwAKgtIo9bbNM0V-7" value="&lt;span style=&quot;font-size: 14px;&quot;&gt;Internal Blog App&lt;/span&gt;" style="text;html=1;resizable=0;autosize=1;align=center;verticalAlign=middle;points=[];fillColor=none;strokeColor=none;rounded=0;shadow=0;" parent="1" vertex="1">
          <mxGeometry x="377" y="68" width="120" height="20" as="geometry" />
        </mxCell>
        <mxCell id="9mC6WxwAKgtIo9bbNM0V-8" value="&lt;span style=&quot;font-size: 14px;&quot;&gt;Admin panel App&lt;/span&gt;" style="text;html=1;resizable=0;autosize=1;align=center;verticalAlign=middle;points=[];fillColor=none;strokeColor=none;rounded=0;shadow=0;" parent="1" vertex="1">
          <mxGeometry x="680" y="68" width="120" height="20" as="geometry" />
        </mxCell>
        <mxCell id="9mC6WxwAKgtIo9bbNM0V-9" value="" style="rounded=0;whiteSpace=wrap;html=1;shadow=0;fontSize=14;" parent="1" vertex="1">
          <mxGeometry x="-90" y="170" width="150" height="30" as="geometry" />
        </mxCell>
        <mxCell id="9mC6WxwAKgtIo9bbNM0V-12" value="" style="rounded=0;whiteSpace=wrap;html=1;shadow=0;fontSize=14;" parent="1" vertex="1">
          <mxGeometry x="-91" y="207" width="150" height="30" as="geometry" />
        </mxCell>
        <mxCell id="9mC6WxwAKgtIo9bbNM0V-13" value="" style="rounded=0;whiteSpace=wrap;html=1;shadow=0;fontSize=14;" parent="1" vertex="1">
          <mxGeometry x="80" y="90" width="150" height="30" as="geometry" />
        </mxCell>
        <mxCell id="9mC6WxwAKgtIo9bbNM0V-14" value="" style="rounded=0;whiteSpace=wrap;html=1;shadow=0;fontSize=14;" parent="1" vertex="1">
          <mxGeometry x="80" y="130" width="150" height="30" as="geometry" />
        </mxCell>
        <mxCell id="9mC6WxwAKgtIo9bbNM0V-15" value="" style="rounded=0;whiteSpace=wrap;html=1;shadow=0;fontSize=14;" parent="1" vertex="1">
          <mxGeometry x="80" y="170" width="150" height="30" as="geometry" />
        </mxCell>
        <mxCell id="9mC6WxwAKgtIo9bbNM0V-17" value="" style="rounded=0;whiteSpace=wrap;html=1;shadow=0;fontSize=14;" parent="1" vertex="1">
          <mxGeometry x="-90" y="90" width="150" height="30" as="geometry" />
        </mxCell>
        <mxCell id="9mC6WxwAKgtIo9bbNM0V-18" value="" style="rounded=0;whiteSpace=wrap;html=1;shadow=0;fontSize=14;" parent="1" vertex="1">
          <mxGeometry x="-90" y="130" width="150" height="30" as="geometry" />
        </mxCell>
        <mxCell id="9mC6WxwAKgtIo9bbNM0V-19" value="&lt;span style=&quot;font-size: 10px;&quot;&gt;User Order history Component&lt;/span&gt;" style="text;html=1;resizable=0;autosize=1;align=center;verticalAlign=middle;points=[];fillColor=none;strokeColor=none;rounded=0;shadow=0;" parent="1" vertex="1">
          <mxGeometry x="-95" y="175" width="150" height="20" as="geometry" />
        </mxCell>
        <mxCell id="9mC6WxwAKgtIo9bbNM0V-20" value="&lt;span style=&quot;font-size: 10px;&quot;&gt;CheckOut Component&lt;/span&gt;" style="text;html=1;resizable=0;autosize=1;align=center;verticalAlign=middle;points=[];fillColor=none;strokeColor=none;rounded=0;shadow=0;" parent="1" vertex="1">
          <mxGeometry x="-70" y="95" width="110" height="20" as="geometry" />
        </mxCell>
        <mxCell id="9mC6WxwAKgtIo9bbNM0V-21" value="&lt;span style=&quot;font-size: 10px;&quot;&gt;Cart Component&lt;/span&gt;" style="text;html=1;resizable=0;autosize=1;align=center;verticalAlign=middle;points=[];fillColor=none;strokeColor=none;rounded=0;shadow=0;" parent="1" vertex="1">
          <mxGeometry x="-60" y="133" width="90" height="20" as="geometry" />
        </mxCell>
        <mxCell id="9mC6WxwAKgtIo9bbNM0V-22" value="&lt;span style=&quot;font-size: 10px;&quot;&gt;E-shop Home Component&lt;/span&gt;" style="text;html=1;resizable=0;autosize=1;align=center;verticalAlign=middle;points=[];fillColor=none;strokeColor=none;rounded=0;shadow=0;" parent="1" vertex="1">
          <mxGeometry x="-75.5" y="212" width="130" height="20" as="geometry" />
        </mxCell>
        <mxCell id="9mC6WxwAKgtIo9bbNM0V-23" value="&lt;span style=&quot;font-size: 10px;&quot;&gt;Featured product Banner &lt;br&gt;Component&lt;/span&gt;" style="text;html=1;resizable=0;autosize=1;align=center;verticalAlign=middle;points=[];fillColor=none;strokeColor=none;rounded=0;shadow=0;" parent="1" vertex="1">
          <mxGeometry x="90" y="85" width="130" height="40" as="geometry" />
        </mxCell>
        <mxCell id="9mC6WxwAKgtIo9bbNM0V-24" value="&lt;span style=&quot;font-size: 10px;&quot;&gt;Categories List Banner&lt;br&gt;Component&lt;br&gt;&lt;/span&gt;" style="text;html=1;resizable=0;autosize=1;align=center;verticalAlign=middle;points=[];fillColor=none;strokeColor=none;rounded=0;shadow=0;" parent="1" vertex="1">
          <mxGeometry x="95" y="125" width="120" height="40" as="geometry" />
        </mxCell>
        <mxCell id="9mC6WxwAKgtIo9bbNM0V-25" value="&lt;span style=&quot;font-size: 10px;&quot;&gt;Product List Component&lt;/span&gt;" style="text;html=1;resizable=0;autosize=1;align=center;verticalAlign=middle;points=[];fillColor=none;strokeColor=none;rounded=0;shadow=0;" parent="1" vertex="1">
          <mxGeometry x="95" y="175" width="120" height="20" as="geometry" />
        </mxCell>
        <mxCell id="9mC6WxwAKgtIo9bbNM0V-28" value="" style="rounded=0;whiteSpace=wrap;html=1;shadow=0;fontSize=14;" parent="1" vertex="1">
          <mxGeometry x="80" y="210" width="150" height="30" as="geometry" />
        </mxCell>
        <mxCell id="9mC6WxwAKgtIo9bbNM0V-29" value="&lt;span style=&quot;font-size: 10px;&quot;&gt;Product detail Component&lt;/span&gt;" style="text;html=1;resizable=0;autosize=1;align=center;verticalAlign=middle;points=[];fillColor=none;strokeColor=none;rounded=0;shadow=0;" parent="1" vertex="1">
          <mxGeometry x="90" y="215" width="130" height="20" as="geometry" />
        </mxCell>
        <mxCell id="9mC6WxwAKgtIo9bbNM0V-30" value="" style="rounded=0;whiteSpace=wrap;html=1;shadow=0;fontSize=14;" parent="1" vertex="1">
          <mxGeometry x="345.5" y="98" width="183" height="30" as="geometry" />
        </mxCell>
        <mxCell id="9mC6WxwAKgtIo9bbNM0V-32" value="" style="rounded=0;whiteSpace=wrap;html=1;shadow=0;fontSize=14;" parent="1" vertex="1">
          <mxGeometry x="345.5" y="133" width="183" height="30" as="geometry" />
        </mxCell>
        <mxCell id="9mC6WxwAKgtIo9bbNM0V-33" value="" style="rounded=0;whiteSpace=wrap;html=1;shadow=0;fontSize=14;" parent="1" vertex="1">
          <mxGeometry x="345.5" y="168" width="183" height="30" as="geometry" />
        </mxCell>
        <mxCell id="9mC6WxwAKgtIo9bbNM0V-34" value="" style="rounded=0;whiteSpace=wrap;html=1;shadow=0;fontSize=14;" parent="1" vertex="1">
          <mxGeometry x="658.5" y="98" width="183" height="30" as="geometry" />
        </mxCell>
        <mxCell id="9mC6WxwAKgtIo9bbNM0V-36" value="" style="rounded=0;whiteSpace=wrap;html=1;shadow=0;fontSize=14;" parent="1" vertex="1">
          <mxGeometry x="658.5" y="133" width="183" height="30" as="geometry" />
        </mxCell>
        <mxCell id="9mC6WxwAKgtIo9bbNM0V-37" value="" style="rounded=0;whiteSpace=wrap;html=1;shadow=0;fontSize=14;" parent="1" vertex="1">
          <mxGeometry x="658.5" y="168" width="183" height="30" as="geometry" />
        </mxCell>
        <mxCell id="9mC6WxwAKgtIo9bbNM0V-38" value="" style="rounded=0;whiteSpace=wrap;html=1;shadow=0;fontSize=14;" parent="1" vertex="1">
          <mxGeometry x="658.5" y="203" width="183" height="30" as="geometry" />
        </mxCell>
        <mxCell id="9mC6WxwAKgtIo9bbNM0V-39" value="&lt;span style=&quot;font-size: 10px;&quot;&gt;Blog Home Component&lt;/span&gt;" style="text;html=1;resizable=0;autosize=1;align=center;verticalAlign=middle;points=[];fillColor=none;strokeColor=none;rounded=0;shadow=0;" parent="1" vertex="1">
          <mxGeometry x="372" y="103" width="120" height="20" as="geometry" />
        </mxCell>
        <mxCell id="9mC6WxwAKgtIo9bbNM0V-40" value="&lt;span style=&quot;font-size: 10px;&quot;&gt;Post List Component&lt;/span&gt;" style="text;html=1;resizable=0;autosize=1;align=center;verticalAlign=middle;points=[];fillColor=none;strokeColor=none;rounded=0;shadow=0;" parent="1" vertex="1">
          <mxGeometry x="382" y="138" width="110" height="20" as="geometry" />
        </mxCell>
        <mxCell id="9mC6WxwAKgtIo9bbNM0V-41" value="&lt;span style=&quot;font-size: 10px;&quot;&gt;Post Service Component&lt;/span&gt;" style="text;html=1;resizable=0;autosize=1;align=center;verticalAlign=middle;points=[];fillColor=none;strokeColor=none;rounded=0;shadow=0;" parent="1" vertex="1">
          <mxGeometry x="372" y="173" width="130" height="20" as="geometry" />
        </mxCell>
        <mxCell id="9mC6WxwAKgtIo9bbNM0V-42" value="&lt;span style=&quot;font-size: 10px;&quot;&gt;Add Product &amp;amp; Category From&amp;nbsp; + Table&lt;/span&gt;" style="text;html=1;resizable=0;autosize=1;align=center;verticalAlign=middle;points=[];fillColor=none;strokeColor=none;rounded=0;shadow=0;" parent="1" vertex="1">
          <mxGeometry x="655" y="103" width="190" height="20" as="geometry" />
        </mxCell>
        <mxCell id="9mC6WxwAKgtIo9bbNM0V-43" value="&lt;span style=&quot;font-size: 10px;&quot;&gt;Edit Order Form + Table&lt;/span&gt;" style="text;html=1;resizable=0;autosize=1;align=center;verticalAlign=middle;points=[];fillColor=none;strokeColor=none;rounded=0;shadow=0;" parent="1" vertex="1">
          <mxGeometry x="690" y="138" width="120" height="20" as="geometry" />
        </mxCell>
        <mxCell id="9mC6WxwAKgtIo9bbNM0V-44" value="&lt;span style=&quot;font-size: 10px;&quot;&gt;Add User Form&amp;nbsp; + Table&lt;/span&gt;" style="text;html=1;resizable=0;autosize=1;align=center;verticalAlign=middle;points=[];fillColor=none;strokeColor=none;rounded=0;shadow=0;" parent="1" vertex="1">
          <mxGeometry x="690" y="173" width="120" height="20" as="geometry" />
        </mxCell>
        <mxCell id="9mC6WxwAKgtIo9bbNM0V-45" value="&lt;span style=&quot;font-size: 10px;&quot;&gt;Banner + Slider Content Edit&lt;/span&gt;" style="text;html=1;resizable=0;autosize=1;align=center;verticalAlign=middle;points=[];fillColor=none;strokeColor=none;rounded=0;shadow=0;" parent="1" vertex="1">
          <mxGeometry x="680" y="208" width="140" height="20" as="geometry" />
        </mxCell>
        <mxCell id="9mC6WxwAKgtIo9bbNM0V-46" value="" style="rounded=0;whiteSpace=wrap;html=1;shadow=0;fontSize=10;fillColor=#f5f5f5;strokeColor=#666666;gradientColor=#b3b3b3;" parent="1" vertex="1">
          <mxGeometry x="-113.5" y="360" width="230" height="220" as="geometry" />
        </mxCell>
        <mxCell id="9mC6WxwAKgtIo9bbNM0V-47" value="" style="rounded=0;whiteSpace=wrap;html=1;shadow=0;fontSize=10;fillColor=#dae8fc;strokeColor=#6c8ebf;gradientColor=#7ea6e0;" parent="1" vertex="1">
          <mxGeometry x="146" y="360" width="230" height="220" as="geometry" />
        </mxCell>
        <mxCell id="9mC6WxwAKgtIo9bbNM0V-48" value="" style="rounded=0;whiteSpace=wrap;html=1;shadow=0;fontSize=10;fillColor=#f8cecc;strokeColor=#b85450;gradientColor=#ea6b66;" parent="1" vertex="1">
          <mxGeometry x="405" y="360" width="230" height="220" as="geometry" />
        </mxCell>
        <mxCell id="9mC6WxwAKgtIo9bbNM0V-49" value="" style="rounded=0;whiteSpace=wrap;html=1;shadow=0;fontSize=10;fillColor=#e6d0de;strokeColor=#996185;gradientColor=#d5739d;" parent="1" vertex="1">
          <mxGeometry x="665" y="360" width="230" height="220" as="geometry" />
        </mxCell>
        <mxCell id="9mC6WxwAKgtIo9bbNM0V-50" value="Banner" style="rounded=0;whiteSpace=wrap;html=1;shadow=0;fontSize=14;" parent="1" vertex="1">
          <mxGeometry x="-87.5" y="370" width="183" height="30" as="geometry" />
        </mxCell>
        <mxCell id="9mC6WxwAKgtIo9bbNM0V-52" value="Slider" style="rounded=0;whiteSpace=wrap;html=1;shadow=0;fontSize=14;" parent="1" vertex="1">
          <mxGeometry x="-87.5" y="410" width="183" height="30" as="geometry" />
        </mxCell>
        <mxCell id="9mC6WxwAKgtIo9bbNM0V-53" value="Carousel" style="rounded=0;whiteSpace=wrap;html=1;shadow=0;fontSize=14;" parent="1" vertex="1">
          <mxGeometry x="-87.5" y="450" width="183" height="30" as="geometry" />
        </mxCell>
        <mxCell id="9mC6WxwAKgtIo9bbNM0V-54" value="Service for Data" style="rounded=0;whiteSpace=wrap;html=1;shadow=0;fontSize=14;fillColor=#eeeeee;strokeColor=#36393d;" parent="1" vertex="1">
          <mxGeometry x="-87.5" y="489" width="183" height="30" as="geometry" />
        </mxCell>
        <mxCell id="9mC6WxwAKgtIo9bbNM0V-60" value="&lt;font style=&quot;font-size: 14px;&quot;&gt;Ui Library&lt;/font&gt;" style="rounded=1;whiteSpace=wrap;html=1;shadow=0;fontSize=10;fillColor=#f5f5f5;gradientColor=#b3b3b3;strokeColor=#666666;" parent="1" vertex="1">
          <mxGeometry x="-108.5" y="585" width="220" height="30" as="geometry" />
        </mxCell>
        <mxCell id="9mC6WxwAKgtIo9bbNM0V-61" value="&lt;font style=&quot;font-size: 14px;&quot;&gt;User &amp;amp; Auth Library&lt;/font&gt;" style="rounded=1;whiteSpace=wrap;html=1;shadow=0;fontSize=10;fillColor=#dae8fc;gradientColor=#7ea6e0;strokeColor=#6c8ebf;" parent="1" vertex="1">
          <mxGeometry x="152" y="585" width="220" height="30" as="geometry" />
        </mxCell>
        <mxCell id="9mC6WxwAKgtIo9bbNM0V-62" value="&lt;span style=&quot;font-size: 14px;&quot;&gt;Product &amp;amp; Category Lib&lt;/span&gt;" style="rounded=1;whiteSpace=wrap;html=1;shadow=0;fontSize=10;fillColor=#f8cecc;gradientColor=#ea6b66;strokeColor=#b85450;" parent="1" vertex="1">
          <mxGeometry x="410" y="585" width="220" height="30" as="geometry" />
        </mxCell>
        <mxCell id="9mC6WxwAKgtIo9bbNM0V-63" value="&lt;span style=&quot;font-size: 14px;&quot;&gt;Order Library&lt;/span&gt;" style="rounded=1;whiteSpace=wrap;html=1;shadow=0;fontSize=10;fillColor=#e6d0de;gradientColor=#d5739d;strokeColor=#996185;" parent="1" vertex="1">
          <mxGeometry x="671.5" y="585" width="220" height="30" as="geometry" />
        </mxCell>
        <mxCell id="9mC6WxwAKgtIo9bbNM0V-65" value="Login Component" style="rounded=0;whiteSpace=wrap;html=1;shadow=0;fontSize=14;" parent="1" vertex="1">
          <mxGeometry x="169.5" y="369" width="183" height="30" as="geometry" />
        </mxCell>
        <mxCell id="9mC6WxwAKgtIo9bbNM0V-66" value="Register Component" style="rounded=0;whiteSpace=wrap;html=1;shadow=0;fontSize=14;" parent="1" vertex="1">
          <mxGeometry x="169.5" y="409" width="183" height="30" as="geometry" />
        </mxCell>
        <mxCell id="9mC6WxwAKgtIo9bbNM0V-67" value="User Service" style="rounded=0;whiteSpace=wrap;html=1;shadow=0;fontSize=14;fillColor=#dae8fc;strokeColor=#6c8ebf;" parent="1" vertex="1">
          <mxGeometry x="169.5" y="449" width="183" height="30" as="geometry" />
        </mxCell>
        <mxCell id="9mC6WxwAKgtIo9bbNM0V-68" value="Auth Service" style="rounded=0;whiteSpace=wrap;html=1;shadow=0;fontSize=14;fillColor=#dae8fc;strokeColor=#6c8ebf;" parent="1" vertex="1">
          <mxGeometry x="169.5" y="489" width="183" height="30" as="geometry" />
        </mxCell>
        <mxCell id="9mC6WxwAKgtIo9bbNM0V-69" value="&lt;font style=&quot;font-size: 12px;&quot;&gt;&lt;b&gt;User State Store For Session&lt;/b&gt;&lt;/font&gt;" style="rounded=0;whiteSpace=wrap;html=1;shadow=0;fontSize=14;fillColor=#dae8fc;strokeColor=#6c8ebf;" parent="1" vertex="1">
          <mxGeometry x="169.5" y="529" width="183" height="30" as="geometry" />
        </mxCell>
        <mxCell id="9mC6WxwAKgtIo9bbNM0V-70" value="Products Services" style="rounded=0;whiteSpace=wrap;html=1;shadow=0;fontSize=14;fillColor=#fff2cc;strokeColor=#d6b656;" parent="1" vertex="1">
          <mxGeometry x="428.5" y="380" width="183" height="30" as="geometry" />
        </mxCell>
        <mxCell id="9mC6WxwAKgtIo9bbNM0V-71" value="Categories Services" style="rounded=0;whiteSpace=wrap;html=1;shadow=0;fontSize=14;fillColor=#fff2cc;strokeColor=#d6b656;" parent="1" vertex="1">
          <mxGeometry x="428.5" y="427" width="183" height="30" as="geometry" />
        </mxCell>
        <mxCell id="9mC6WxwAKgtIo9bbNM0V-72" value="Order Servides" style="rounded=0;whiteSpace=wrap;html=1;shadow=0;fontSize=14;fillColor=#e1d5e7;strokeColor=#9673a6;" parent="1" vertex="1">
          <mxGeometry x="690" y="380" width="183" height="30" as="geometry" />
        </mxCell>
        <mxCell id="9mC6WxwAKgtIo9bbNM0V-73" value="Order State Store for Cart" style="rounded=0;whiteSpace=wrap;html=1;shadow=0;fontSize=14;fillColor=#e1d5e7;strokeColor=#9673a6;" parent="1" vertex="1">
          <mxGeometry x="690" y="427" width="183" height="30" as="geometry" />
        </mxCell>
        <mxCell id="9mC6WxwAKgtIo9bbNM0V-80" value="" style="endArrow=none;html=1;rounded=0;fontSize=14;edgeStyle=elbowEdgeStyle;elbow=vertical;fillColor=#cce5ff;strokeColor=#78B6F5;strokeWidth=4;" parent="1" source="9mC6WxwAKgtIo9bbNM0V-46" edge="1">
          <mxGeometry width="50" height="50" relative="1" as="geometry">
            <mxPoint x="380" y="250" as="sourcePoint" />
            <mxPoint x="760" y="250" as="targetPoint" />
            <Array as="points">
              <mxPoint y="300" />
            </Array>
          </mxGeometry>
        </mxCell>
        <mxCell id="9mC6WxwAKgtIo9bbNM0V-81" value="" style="endArrow=none;html=1;rounded=0;fontSize=14;elbow=vertical;exitX=0.37;exitY=0.001;exitDx=0;exitDy=0;exitPerimeter=0;strokeColor=#78B6F5;strokeWidth=4;" parent="1" source="9mC6WxwAKgtIo9bbNM0V-47" edge="1">
          <mxGeometry width="50" height="50" relative="1" as="geometry">
            <mxPoint x="230" y="350" as="sourcePoint" />
            <mxPoint x="230" y="300" as="targetPoint" />
          </mxGeometry>
        </mxCell>
        <mxCell id="9mC6WxwAKgtIo9bbNM0V-83" value="" style="endArrow=none;html=1;rounded=0;fontSize=14;elbow=vertical;exitX=0.409;exitY=-0.003;exitDx=0;exitDy=0;exitPerimeter=0;strokeColor=#78B6F5;strokeWidth=4;" parent="1" source="9mC6WxwAKgtIo9bbNM0V-48" edge="1">
          <mxGeometry width="50" height="50" relative="1" as="geometry">
            <mxPoint x="520" y="350" as="sourcePoint" />
            <mxPoint x="500" y="300" as="targetPoint" />
          </mxGeometry>
        </mxCell>
        <mxCell id="9mC6WxwAKgtIo9bbNM0V-84" value="" style="endArrow=none;html=1;rounded=0;fontSize=14;elbow=vertical;fillColor=#cce5ff;strokeColor=#78B6F5;strokeWidth=4;" parent="1" edge="1">
          <mxGeometry width="50" height="50" relative="1" as="geometry">
            <mxPoint x="730" y="360" as="sourcePoint" />
            <mxPoint x="730" y="300" as="targetPoint" />
          </mxGeometry>
        </mxCell>
        <mxCell id="9mC6WxwAKgtIo9bbNM0V-86" value="" style="endArrow=none;html=1;rounded=0;fontSize=14;elbow=vertical;entryX=0.479;entryY=1.011;entryDx=0;entryDy=0;entryPerimeter=0;exitX=0.587;exitY=0;exitDx=0;exitDy=0;exitPerimeter=0;fillColor=#e51400;strokeColor=#B20000;strokeWidth=4;" parent="1" source="9mC6WxwAKgtIo9bbNM0V-49" target="9mC6WxwAKgtIo9bbNM0V-2" edge="1">
          <mxGeometry width="50" height="50" relative="1" as="geometry">
            <mxPoint x="380" y="350" as="sourcePoint" />
            <mxPoint x="430" y="300" as="targetPoint" />
            <Array as="points">
              <mxPoint x="800" y="260" />
              <mxPoint x="100" y="260" />
              <mxPoint x="67" y="260" />
            </Array>
          </mxGeometry>
        </mxCell>
        <mxCell id="9mC6WxwAKgtIo9bbNM0V-92" value="" style="endArrow=none;html=1;rounded=0;fontSize=14;elbow=vertical;exitX=1;exitY=0;exitDx=0;exitDy=0;fillColor=#76608a;strokeColor=#432D57;entryX=0.75;entryY=0;entryDx=0;entryDy=0;strokeWidth=4;" parent="1" source="9mC6WxwAKgtIo9bbNM0V-47" target="9mC6WxwAKgtIo9bbNM0V-46" edge="1">
          <mxGeometry width="50" height="50" relative="1" as="geometry">
            <mxPoint x="390" y="270" as="sourcePoint" />
            <mxPoint x="60" y="320" as="targetPoint" />
            <Array as="points">
              <mxPoint x="376" y="320" />
              <mxPoint x="59" y="320" />
            </Array>
          </mxGeometry>
        </mxCell>
        <mxCell id="9mC6WxwAKgtIo9bbNM0V-94" value="" style="endArrow=none;html=1;rounded=0;fontSize=14;elbow=vertical;entryX=0.25;entryY=1;entryDx=0;entryDy=0;fillColor=#76608a;strokeColor=#432D57;strokeWidth=4;" parent="1" target="9mC6WxwAKgtIo9bbNM0V-3" edge="1">
          <mxGeometry width="50" height="50" relative="1" as="geometry">
            <mxPoint x="366" y="320" as="sourcePoint" />
            <mxPoint x="430" y="300" as="targetPoint" />
          </mxGeometry>
        </mxCell>
        <mxCell id="9mC6WxwAKgtIo9bbNM0V-98" value="" style="endArrow=none;html=1;rounded=0;fontSize=14;strokeColor=#B20000;strokeWidth=4;elbow=vertical;exitX=0.804;exitY=0;exitDx=0;exitDy=0;exitPerimeter=0;" parent="1" source="9mC6WxwAKgtIo9bbNM0V-48" edge="1">
          <mxGeometry width="50" height="50" relative="1" as="geometry">
            <mxPoint x="380" y="350" as="sourcePoint" />
            <mxPoint x="590" y="260" as="targetPoint" />
          </mxGeometry>
        </mxCell>
        <mxCell id="9mC6WxwAKgtIo9bbNM0V-99" value="" style="endArrow=none;html=1;rounded=0;fontSize=14;strokeColor=#B20000;strokeWidth=4;elbow=vertical;exitX=0.592;exitY=0.001;exitDx=0;exitDy=0;exitPerimeter=0;" parent="1" source="9mC6WxwAKgtIo9bbNM0V-47" edge="1">
          <mxGeometry width="50" height="50" relative="1" as="geometry">
            <mxPoint x="380" y="350" as="sourcePoint" />
            <mxPoint x="283" y="260" as="targetPoint" />
          </mxGeometry>
        </mxCell>
        <mxCell id="9mC6WxwAKgtIo9bbNM0V-100" value="" style="endArrow=none;html=1;rounded=0;fontSize=14;strokeColor=#B20000;strokeWidth=4;elbow=vertical;exitX=0.907;exitY=-0.003;exitDx=0;exitDy=0;exitPerimeter=0;" parent="1" source="9mC6WxwAKgtIo9bbNM0V-46" edge="1">
          <mxGeometry width="50" height="50" relative="1" as="geometry">
            <mxPoint x="380" y="270" as="sourcePoint" />
            <mxPoint x="95" y="260" as="targetPoint" />
          </mxGeometry>
        </mxCell>
        <mxCell id="wIeUMKHmTBFqxhQbpUr_-1" style="edgeStyle=orthogonalEdgeStyle;rounded=0;orthogonalLoop=1;jettySize=auto;html=1;exitX=0.5;exitY=1;exitDx=0;exitDy=0;" parent="1" source="9mC6WxwAKgtIo9bbNM0V-61" target="9mC6WxwAKgtIo9bbNM0V-61" edge="1">
          <mxGeometry relative="1" as="geometry" />
        </mxCell>
      </root>
    </mxGraphModel>
  </diagram>
  <diagram id="c7bgVpJWJqv5WWa9pFPL" name="Page-2">
    <mxGraphModel dx="1865" dy="547" grid="1" gridSize="10" guides="1" tooltips="1" connect="1" arrows="1" fold="1" page="1" pageScale="1" pageWidth="827" pageHeight="1169" math="0" shadow="0">
      <root>
        <mxCell id="0" />
        <mxCell id="1" parent="0" />
        <mxCell id="40RxpvVLLGdI-8bN7NcC-1" value="" style="rounded=0;whiteSpace=wrap;html=1;shadow=0;gradientColor=none;" parent="1" vertex="1">
          <mxGeometry x="-130" y="40" width="1040" height="590" as="geometry" />
        </mxCell>
        <mxCell id="40RxpvVLLGdI-8bN7NcC-2" value="" style="rounded=1;whiteSpace=wrap;html=1;fillColor=#dae8fc;strokeColor=#6c8ebf;arcSize=6;" parent="1" vertex="1">
          <mxGeometry x="-120" y="60" width="390" height="190" as="geometry" />
        </mxCell>
        <mxCell id="40RxpvVLLGdI-8bN7NcC-3" value="" style="rounded=1;whiteSpace=wrap;html=1;fillColor=#e1d5e7;strokeColor=#9673a6;arcSize=5;" parent="1" vertex="1">
          <mxGeometry x="294" y="60" width="286" height="190" as="geometry" />
        </mxCell>
        <mxCell id="40RxpvVLLGdI-8bN7NcC-4" value="" style="rounded=1;whiteSpace=wrap;html=1;fillColor=#dae8fc;strokeColor=#6c8ebf;arcSize=5;" parent="1" vertex="1">
          <mxGeometry x="600" y="60" width="300" height="189" as="geometry" />
        </mxCell>
        <mxCell id="40RxpvVLLGdI-8bN7NcC-5" value="&lt;span style=&quot;font-size: 14px;&quot;&gt;E-shop App&lt;/span&gt;" style="text;html=1;resizable=0;autosize=1;align=center;verticalAlign=middle;points=[];fillColor=none;strokeColor=none;rounded=0;shadow=0;" parent="1" vertex="1">
          <mxGeometry x="20" y="61" width="90" height="20" as="geometry" />
        </mxCell>
        <mxCell id="40RxpvVLLGdI-8bN7NcC-6" value="&lt;span style=&quot;font-size: 14px;&quot;&gt;Internal Blog App&lt;/span&gt;" style="text;html=1;resizable=0;autosize=1;align=center;verticalAlign=middle;points=[];fillColor=none;strokeColor=none;rounded=0;shadow=0;" parent="1" vertex="1">
          <mxGeometry x="377" y="68" width="120" height="20" as="geometry" />
        </mxCell>
        <mxCell id="40RxpvVLLGdI-8bN7NcC-7" value="&lt;span style=&quot;font-size: 14px;&quot;&gt;My Shop Admin panel App&lt;/span&gt;" style="text;html=1;resizable=0;autosize=1;align=center;verticalAlign=middle;points=[];fillColor=none;strokeColor=none;rounded=0;shadow=0;" parent="1" vertex="1">
          <mxGeometry x="658.5" y="65" width="180" height="20" as="geometry" />
        </mxCell>
        <mxCell id="40RxpvVLLGdI-8bN7NcC-8" value="" style="rounded=0;whiteSpace=wrap;html=1;shadow=0;fontSize=14;" parent="1" vertex="1">
          <mxGeometry x="-90" y="170" width="150" height="30" as="geometry" />
        </mxCell>
        <mxCell id="40RxpvVLLGdI-8bN7NcC-9" value="" style="rounded=0;whiteSpace=wrap;html=1;shadow=0;fontSize=14;" parent="1" vertex="1">
          <mxGeometry x="-91" y="207" width="150" height="30" as="geometry" />
        </mxCell>
        <mxCell id="40RxpvVLLGdI-8bN7NcC-10" value="" style="rounded=0;whiteSpace=wrap;html=1;shadow=0;fontSize=14;" parent="1" vertex="1">
          <mxGeometry x="80" y="90" width="150" height="30" as="geometry" />
        </mxCell>
        <mxCell id="40RxpvVLLGdI-8bN7NcC-11" value="" style="rounded=0;whiteSpace=wrap;html=1;shadow=0;fontSize=14;" parent="1" vertex="1">
          <mxGeometry x="80" y="130" width="150" height="30" as="geometry" />
        </mxCell>
        <mxCell id="40RxpvVLLGdI-8bN7NcC-12" value="" style="rounded=0;whiteSpace=wrap;html=1;shadow=0;fontSize=14;" parent="1" vertex="1">
          <mxGeometry x="80" y="170" width="150" height="30" as="geometry" />
        </mxCell>
        <mxCell id="40RxpvVLLGdI-8bN7NcC-13" value="" style="rounded=0;whiteSpace=wrap;html=1;shadow=0;fontSize=14;" parent="1" vertex="1">
          <mxGeometry x="-90" y="90" width="150" height="30" as="geometry" />
        </mxCell>
        <mxCell id="40RxpvVLLGdI-8bN7NcC-14" value="" style="rounded=0;whiteSpace=wrap;html=1;shadow=0;fontSize=14;" parent="1" vertex="1">
          <mxGeometry x="-90" y="130" width="150" height="30" as="geometry" />
        </mxCell>
        <mxCell id="40RxpvVLLGdI-8bN7NcC-15" value="&lt;span style=&quot;font-size: 10px;&quot;&gt;User Order history Component&lt;/span&gt;" style="text;html=1;resizable=0;autosize=1;align=center;verticalAlign=middle;points=[];fillColor=none;strokeColor=none;rounded=0;shadow=0;" parent="1" vertex="1">
          <mxGeometry x="-95" y="175" width="150" height="20" as="geometry" />
        </mxCell>
        <mxCell id="40RxpvVLLGdI-8bN7NcC-16" value="&lt;span style=&quot;font-size: 10px;&quot;&gt;CheckOut Component&lt;/span&gt;" style="text;html=1;resizable=0;autosize=1;align=center;verticalAlign=middle;points=[];fillColor=none;strokeColor=none;rounded=0;shadow=0;" parent="1" vertex="1">
          <mxGeometry x="-70" y="95" width="110" height="20" as="geometry" />
        </mxCell>
        <mxCell id="40RxpvVLLGdI-8bN7NcC-17" value="&lt;span style=&quot;font-size: 10px;&quot;&gt;Cart Component&lt;/span&gt;" style="text;html=1;resizable=0;autosize=1;align=center;verticalAlign=middle;points=[];fillColor=none;strokeColor=none;rounded=0;shadow=0;" parent="1" vertex="1">
          <mxGeometry x="-60" y="133" width="90" height="20" as="geometry" />
        </mxCell>
        <mxCell id="40RxpvVLLGdI-8bN7NcC-18" value="&lt;span style=&quot;font-size: 10px;&quot;&gt;E-shop Home Component&lt;/span&gt;" style="text;html=1;resizable=0;autosize=1;align=center;verticalAlign=middle;points=[];fillColor=none;strokeColor=none;rounded=0;shadow=0;" parent="1" vertex="1">
          <mxGeometry x="-75.5" y="212" width="130" height="20" as="geometry" />
        </mxCell>
        <mxCell id="40RxpvVLLGdI-8bN7NcC-19" value="&lt;span style=&quot;font-size: 10px;&quot;&gt;Featured product Banner &lt;br&gt;Component&lt;/span&gt;" style="text;html=1;resizable=0;autosize=1;align=center;verticalAlign=middle;points=[];fillColor=none;strokeColor=none;rounded=0;shadow=0;" parent="1" vertex="1">
          <mxGeometry x="90" y="85" width="130" height="40" as="geometry" />
        </mxCell>
        <mxCell id="40RxpvVLLGdI-8bN7NcC-20" value="&lt;span style=&quot;font-size: 10px;&quot;&gt;Categories List Banner&lt;br&gt;Component&lt;br&gt;&lt;/span&gt;" style="text;html=1;resizable=0;autosize=1;align=center;verticalAlign=middle;points=[];fillColor=none;strokeColor=none;rounded=0;shadow=0;" parent="1" vertex="1">
          <mxGeometry x="95" y="125" width="120" height="40" as="geometry" />
        </mxCell>
        <mxCell id="40RxpvVLLGdI-8bN7NcC-21" value="&lt;span style=&quot;font-size: 10px;&quot;&gt;Product List Component&lt;/span&gt;" style="text;html=1;resizable=0;autosize=1;align=center;verticalAlign=middle;points=[];fillColor=none;strokeColor=none;rounded=0;shadow=0;" parent="1" vertex="1">
          <mxGeometry x="95" y="175" width="120" height="20" as="geometry" />
        </mxCell>
        <mxCell id="40RxpvVLLGdI-8bN7NcC-22" value="" style="rounded=0;whiteSpace=wrap;html=1;shadow=0;fontSize=14;" parent="1" vertex="1">
          <mxGeometry x="80" y="210" width="150" height="30" as="geometry" />
        </mxCell>
        <mxCell id="40RxpvVLLGdI-8bN7NcC-23" value="&lt;span style=&quot;font-size: 10px;&quot;&gt;Product detail Component&lt;/span&gt;" style="text;html=1;resizable=0;autosize=1;align=center;verticalAlign=middle;points=[];fillColor=none;strokeColor=none;rounded=0;shadow=0;" parent="1" vertex="1">
          <mxGeometry x="90" y="215" width="130" height="20" as="geometry" />
        </mxCell>
        <mxCell id="40RxpvVLLGdI-8bN7NcC-24" value="" style="rounded=0;whiteSpace=wrap;html=1;shadow=0;fontSize=14;" parent="1" vertex="1">
          <mxGeometry x="345.5" y="98" width="183" height="30" as="geometry" />
        </mxCell>
        <mxCell id="40RxpvVLLGdI-8bN7NcC-25" value="" style="rounded=0;whiteSpace=wrap;html=1;shadow=0;fontSize=14;" parent="1" vertex="1">
          <mxGeometry x="345.5" y="133" width="183" height="30" as="geometry" />
        </mxCell>
        <mxCell id="40RxpvVLLGdI-8bN7NcC-26" value="" style="rounded=0;whiteSpace=wrap;html=1;shadow=0;fontSize=14;" parent="1" vertex="1">
          <mxGeometry x="345.5" y="168" width="183" height="30" as="geometry" />
        </mxCell>
        <mxCell id="40RxpvVLLGdI-8bN7NcC-27" value="" style="rounded=0;whiteSpace=wrap;html=1;shadow=0;fontSize=14;" parent="1" vertex="1">
          <mxGeometry x="658.5" y="98" width="183" height="30" as="geometry" />
        </mxCell>
        <mxCell id="40RxpvVLLGdI-8bN7NcC-28" value="" style="rounded=0;whiteSpace=wrap;html=1;shadow=0;fontSize=14;" parent="1" vertex="1">
          <mxGeometry x="658.5" y="133" width="183" height="30" as="geometry" />
        </mxCell>
        <mxCell id="40RxpvVLLGdI-8bN7NcC-29" value="" style="rounded=0;whiteSpace=wrap;html=1;shadow=0;fontSize=14;" parent="1" vertex="1">
          <mxGeometry x="658.5" y="168" width="183" height="30" as="geometry" />
        </mxCell>
        <mxCell id="40RxpvVLLGdI-8bN7NcC-30" value="" style="rounded=0;whiteSpace=wrap;html=1;shadow=0;fontSize=14;" parent="1" vertex="1">
          <mxGeometry x="658.5" y="203" width="183" height="30" as="geometry" />
        </mxCell>
        <mxCell id="40RxpvVLLGdI-8bN7NcC-31" value="&lt;span style=&quot;font-size: 10px;&quot;&gt;Blog Home Component&lt;/span&gt;" style="text;html=1;resizable=0;autosize=1;align=center;verticalAlign=middle;points=[];fillColor=none;strokeColor=none;rounded=0;shadow=0;" parent="1" vertex="1">
          <mxGeometry x="372" y="103" width="120" height="20" as="geometry" />
        </mxCell>
        <mxCell id="40RxpvVLLGdI-8bN7NcC-32" value="&lt;span style=&quot;font-size: 10px;&quot;&gt;Post List Component&lt;/span&gt;" style="text;html=1;resizable=0;autosize=1;align=center;verticalAlign=middle;points=[];fillColor=none;strokeColor=none;rounded=0;shadow=0;" parent="1" vertex="1">
          <mxGeometry x="382" y="138" width="110" height="20" as="geometry" />
        </mxCell>
        <mxCell id="40RxpvVLLGdI-8bN7NcC-33" value="&lt;span style=&quot;font-size: 10px;&quot;&gt;Post Service Component&lt;/span&gt;" style="text;html=1;resizable=0;autosize=1;align=center;verticalAlign=middle;points=[];fillColor=none;strokeColor=none;rounded=0;shadow=0;" parent="1" vertex="1">
          <mxGeometry x="372" y="173" width="130" height="20" as="geometry" />
        </mxCell>
        <mxCell id="40RxpvVLLGdI-8bN7NcC-34" value="&lt;span style=&quot;font-size: 10px;&quot;&gt;Add Product &amp;amp; Cart From&amp;nbsp; + Table&lt;/span&gt;" style="text;html=1;resizable=0;autosize=1;align=center;verticalAlign=middle;points=[];fillColor=none;strokeColor=none;rounded=0;shadow=0;" parent="1" vertex="1">
          <mxGeometry x="665" y="103" width="170" height="20" as="geometry" />
        </mxCell>
        <mxCell id="40RxpvVLLGdI-8bN7NcC-35" value="&lt;span style=&quot;font-size: 10px;&quot;&gt;Edit Order Form + Table&lt;/span&gt;" style="text;html=1;resizable=0;autosize=1;align=center;verticalAlign=middle;points=[];fillColor=none;strokeColor=none;rounded=0;shadow=0;" parent="1" vertex="1">
          <mxGeometry x="690" y="138" width="120" height="20" as="geometry" />
        </mxCell>
        <mxCell id="40RxpvVLLGdI-8bN7NcC-36" value="&lt;span style=&quot;font-size: 10px;&quot;&gt;Add User Form&amp;nbsp; + Table&lt;/span&gt;" style="text;html=1;resizable=0;autosize=1;align=center;verticalAlign=middle;points=[];fillColor=none;strokeColor=none;rounded=0;shadow=0;" parent="1" vertex="1">
          <mxGeometry x="690" y="173" width="120" height="20" as="geometry" />
        </mxCell>
        <mxCell id="40RxpvVLLGdI-8bN7NcC-37" value="&lt;span style=&quot;font-size: 10px;&quot;&gt;Banner + Slider Content Edit&lt;/span&gt;" style="text;html=1;resizable=0;autosize=1;align=center;verticalAlign=middle;points=[];fillColor=none;strokeColor=none;rounded=0;shadow=0;" parent="1" vertex="1">
          <mxGeometry x="680" y="208" width="140" height="20" as="geometry" />
        </mxCell>
        <mxCell id="40RxpvVLLGdI-8bN7NcC-38" value="" style="rounded=0;whiteSpace=wrap;html=1;shadow=0;fontSize=10;fillColor=#f5f5f5;strokeColor=#666666;gradientColor=#b3b3b3;" parent="1" vertex="1">
          <mxGeometry x="-113.5" y="360" width="230" height="220" as="geometry" />
        </mxCell>
        <mxCell id="40RxpvVLLGdI-8bN7NcC-39" value="" style="rounded=0;whiteSpace=wrap;html=1;shadow=0;fontSize=10;fillColor=#dae8fc;strokeColor=#6c8ebf;gradientColor=#7ea6e0;" parent="1" vertex="1">
          <mxGeometry x="146" y="360" width="230" height="220" as="geometry" />
        </mxCell>
        <mxCell id="40RxpvVLLGdI-8bN7NcC-40" value="" style="rounded=0;whiteSpace=wrap;html=1;shadow=0;fontSize=10;fillColor=#f8cecc;strokeColor=#b85450;gradientColor=#ea6b66;" parent="1" vertex="1">
          <mxGeometry x="405" y="360" width="230" height="220" as="geometry" />
        </mxCell>
        <mxCell id="40RxpvVLLGdI-8bN7NcC-41" value="" style="rounded=0;whiteSpace=wrap;html=1;shadow=0;fontSize=10;fillColor=#e6d0de;strokeColor=#996185;gradientColor=#d5739d;" parent="1" vertex="1">
          <mxGeometry x="665" y="360" width="230" height="220" as="geometry" />
        </mxCell>
        <mxCell id="40RxpvVLLGdI-8bN7NcC-42" value="Banner" style="rounded=0;whiteSpace=wrap;html=1;shadow=0;fontSize=14;" parent="1" vertex="1">
          <mxGeometry x="-87.5" y="370" width="183" height="30" as="geometry" />
        </mxCell>
        <mxCell id="40RxpvVLLGdI-8bN7NcC-43" value="Slider" style="rounded=0;whiteSpace=wrap;html=1;shadow=0;fontSize=14;" parent="1" vertex="1">
          <mxGeometry x="-87.5" y="410" width="183" height="30" as="geometry" />
        </mxCell>
        <mxCell id="40RxpvVLLGdI-8bN7NcC-44" value="Carousel" style="rounded=0;whiteSpace=wrap;html=1;shadow=0;fontSize=14;" parent="1" vertex="1">
          <mxGeometry x="-87.5" y="450" width="183" height="30" as="geometry" />
        </mxCell>
        <mxCell id="40RxpvVLLGdI-8bN7NcC-45" value="Service for Data" style="rounded=0;whiteSpace=wrap;html=1;shadow=0;fontSize=14;fillColor=#eeeeee;strokeColor=#36393d;" parent="1" vertex="1">
          <mxGeometry x="-87.5" y="489" width="183" height="30" as="geometry" />
        </mxCell>
        <mxCell id="40RxpvVLLGdI-8bN7NcC-46" value="&lt;font style=&quot;font-size: 14px;&quot;&gt;libs/Ui Library&lt;/font&gt;" style="rounded=1;whiteSpace=wrap;html=1;shadow=0;fontSize=10;fillColor=#f5f5f5;gradientColor=#b3b3b3;strokeColor=#666666;" parent="1" vertex="1">
          <mxGeometry x="-108.5" y="585" width="220" height="30" as="geometry" />
        </mxCell>
        <mxCell id="40RxpvVLLGdI-8bN7NcC-47" value="&lt;font style=&quot;font-size: 14px;&quot;&gt;libs/User &amp;amp; Auth Library&lt;/font&gt;" style="rounded=1;whiteSpace=wrap;html=1;shadow=0;fontSize=10;fillColor=#dae8fc;gradientColor=#7ea6e0;strokeColor=#6c8ebf;" parent="1" vertex="1">
          <mxGeometry x="152" y="585" width="220" height="30" as="geometry" />
        </mxCell>
        <mxCell id="40RxpvVLLGdI-8bN7NcC-48" value="&lt;span style=&quot;font-size: 14px;&quot;&gt;libs/&lt;/span&gt;&lt;span style=&quot;font-size: 14px;&quot;&gt;Products &amp;amp; Category Lib&lt;/span&gt;" style="rounded=1;whiteSpace=wrap;html=1;shadow=0;fontSize=10;fillColor=#f8cecc;gradientColor=#ea6b66;strokeColor=#b85450;" parent="1" vertex="1">
          <mxGeometry x="410" y="585" width="220" height="30" as="geometry" />
        </mxCell>
        <mxCell id="40RxpvVLLGdI-8bN7NcC-49" value="&lt;span style=&quot;font-size: 14px;&quot;&gt;libs/&lt;/span&gt;&lt;span style=&quot;font-size: 14px;&quot;&gt;Order Library&lt;/span&gt;" style="rounded=1;whiteSpace=wrap;html=1;shadow=0;fontSize=10;fillColor=#e6d0de;gradientColor=#d5739d;strokeColor=#996185;" parent="1" vertex="1">
          <mxGeometry x="671.5" y="585" width="220" height="30" as="geometry" />
        </mxCell>
        <mxCell id="40RxpvVLLGdI-8bN7NcC-50" value="Login Component" style="rounded=0;whiteSpace=wrap;html=1;shadow=0;fontSize=14;" parent="1" vertex="1">
          <mxGeometry x="169.5" y="369" width="183" height="30" as="geometry" />
        </mxCell>
        <mxCell id="40RxpvVLLGdI-8bN7NcC-51" value="Register Component" style="rounded=0;whiteSpace=wrap;html=1;shadow=0;fontSize=14;" parent="1" vertex="1">
          <mxGeometry x="169.5" y="409" width="183" height="30" as="geometry" />
        </mxCell>
        <mxCell id="40RxpvVLLGdI-8bN7NcC-52" value="User Service" style="rounded=0;whiteSpace=wrap;html=1;shadow=0;fontSize=14;fillColor=#dae8fc;strokeColor=#6c8ebf;" parent="1" vertex="1">
          <mxGeometry x="169.5" y="449" width="183" height="30" as="geometry" />
        </mxCell>
        <mxCell id="40RxpvVLLGdI-8bN7NcC-53" value="Auth Service" style="rounded=0;whiteSpace=wrap;html=1;shadow=0;fontSize=14;fillColor=#dae8fc;strokeColor=#6c8ebf;" parent="1" vertex="1">
          <mxGeometry x="169.5" y="489" width="183" height="30" as="geometry" />
        </mxCell>
        <mxCell id="40RxpvVLLGdI-8bN7NcC-54" value="&lt;font style=&quot;font-size: 12px;&quot;&gt;&lt;b&gt;User State Store For Session&lt;/b&gt;&lt;/font&gt;" style="rounded=0;whiteSpace=wrap;html=1;shadow=0;fontSize=14;fillColor=#dae8fc;strokeColor=#6c8ebf;" parent="1" vertex="1">
          <mxGeometry x="169.5" y="529" width="183" height="30" as="geometry" />
        </mxCell>
        <mxCell id="40RxpvVLLGdI-8bN7NcC-55" value="Products Services" style="rounded=0;whiteSpace=wrap;html=1;shadow=0;fontSize=14;fillColor=#fff2cc;strokeColor=#d6b656;" parent="1" vertex="1">
          <mxGeometry x="428.5" y="380" width="183" height="30" as="geometry" />
        </mxCell>
        <mxCell id="40RxpvVLLGdI-8bN7NcC-56" value="Categories Services" style="rounded=0;whiteSpace=wrap;html=1;shadow=0;fontSize=14;fillColor=#fff2cc;strokeColor=#d6b656;" parent="1" vertex="1">
          <mxGeometry x="428.5" y="427" width="183" height="30" as="geometry" />
        </mxCell>
        <mxCell id="40RxpvVLLGdI-8bN7NcC-57" value="Order Servides" style="rounded=0;whiteSpace=wrap;html=1;shadow=0;fontSize=14;fillColor=#e1d5e7;strokeColor=#9673a6;" parent="1" vertex="1">
          <mxGeometry x="690" y="380" width="183" height="30" as="geometry" />
        </mxCell>
        <mxCell id="40RxpvVLLGdI-8bN7NcC-58" value="Order State Store for Cart" style="rounded=0;whiteSpace=wrap;html=1;shadow=0;fontSize=14;fillColor=#e1d5e7;strokeColor=#9673a6;" parent="1" vertex="1">
          <mxGeometry x="690" y="427" width="183" height="30" as="geometry" />
        </mxCell>
        <mxCell id="40RxpvVLLGdI-8bN7NcC-59" value="" style="endArrow=none;html=1;rounded=0;fontSize=14;edgeStyle=elbowEdgeStyle;elbow=vertical;fillColor=#cce5ff;strokeColor=#78B6F5;strokeWidth=4;" parent="1" source="40RxpvVLLGdI-8bN7NcC-38" edge="1">
          <mxGeometry width="50" height="50" relative="1" as="geometry">
            <mxPoint x="380" y="250" as="sourcePoint" />
            <mxPoint x="760" y="250" as="targetPoint" />
            <Array as="points">
              <mxPoint y="300" />
            </Array>
          </mxGeometry>
        </mxCell>
        <mxCell id="40RxpvVLLGdI-8bN7NcC-60" value="" style="endArrow=none;html=1;rounded=0;fontSize=14;elbow=vertical;exitX=0.37;exitY=0.001;exitDx=0;exitDy=0;exitPerimeter=0;strokeColor=#78B6F5;strokeWidth=4;" parent="1" source="40RxpvVLLGdI-8bN7NcC-39" edge="1">
          <mxGeometry width="50" height="50" relative="1" as="geometry">
            <mxPoint x="230" y="350" as="sourcePoint" />
            <mxPoint x="230" y="300" as="targetPoint" />
          </mxGeometry>
        </mxCell>
        <mxCell id="40RxpvVLLGdI-8bN7NcC-61" value="" style="endArrow=none;html=1;rounded=0;fontSize=14;elbow=vertical;exitX=0.409;exitY=-0.003;exitDx=0;exitDy=0;exitPerimeter=0;strokeColor=#78B6F5;strokeWidth=4;" parent="1" source="40RxpvVLLGdI-8bN7NcC-40" edge="1">
          <mxGeometry width="50" height="50" relative="1" as="geometry">
            <mxPoint x="520" y="350" as="sourcePoint" />
            <mxPoint x="500" y="300" as="targetPoint" />
          </mxGeometry>
        </mxCell>
        <mxCell id="40RxpvVLLGdI-8bN7NcC-62" value="" style="endArrow=none;html=1;rounded=0;fontSize=14;elbow=vertical;fillColor=#cce5ff;strokeColor=#78B6F5;strokeWidth=4;" parent="1" edge="1">
          <mxGeometry width="50" height="50" relative="1" as="geometry">
            <mxPoint x="730" y="360" as="sourcePoint" />
            <mxPoint x="730" y="300" as="targetPoint" />
          </mxGeometry>
        </mxCell>
        <mxCell id="40RxpvVLLGdI-8bN7NcC-63" value="" style="endArrow=none;html=1;rounded=0;fontSize=14;elbow=vertical;entryX=0.479;entryY=1.011;entryDx=0;entryDy=0;entryPerimeter=0;exitX=0.587;exitY=0;exitDx=0;exitDy=0;exitPerimeter=0;fillColor=#e51400;strokeColor=#B20000;strokeWidth=4;" parent="1" source="40RxpvVLLGdI-8bN7NcC-41" target="40RxpvVLLGdI-8bN7NcC-2" edge="1">
          <mxGeometry width="50" height="50" relative="1" as="geometry">
            <mxPoint x="380" y="350" as="sourcePoint" />
            <mxPoint x="430" y="300" as="targetPoint" />
            <Array as="points">
              <mxPoint x="800" y="260" />
              <mxPoint x="100" y="260" />
              <mxPoint x="67" y="260" />
            </Array>
          </mxGeometry>
        </mxCell>
        <mxCell id="40RxpvVLLGdI-8bN7NcC-64" value="" style="endArrow=none;html=1;rounded=0;fontSize=14;elbow=vertical;exitX=1;exitY=0;exitDx=0;exitDy=0;fillColor=#76608a;strokeColor=#432D57;entryX=0.75;entryY=0;entryDx=0;entryDy=0;strokeWidth=4;" parent="1" source="40RxpvVLLGdI-8bN7NcC-39" target="40RxpvVLLGdI-8bN7NcC-38" edge="1">
          <mxGeometry width="50" height="50" relative="1" as="geometry">
            <mxPoint x="390" y="270" as="sourcePoint" />
            <mxPoint x="60" y="320" as="targetPoint" />
            <Array as="points">
              <mxPoint x="376" y="320" />
              <mxPoint x="59" y="320" />
            </Array>
          </mxGeometry>
        </mxCell>
        <mxCell id="40RxpvVLLGdI-8bN7NcC-65" value="" style="endArrow=none;html=1;rounded=0;fontSize=14;elbow=vertical;entryX=0.25;entryY=1;entryDx=0;entryDy=0;fillColor=#76608a;strokeColor=#432D57;strokeWidth=4;" parent="1" target="40RxpvVLLGdI-8bN7NcC-3" edge="1">
          <mxGeometry width="50" height="50" relative="1" as="geometry">
            <mxPoint x="366" y="320" as="sourcePoint" />
            <mxPoint x="430" y="300" as="targetPoint" />
          </mxGeometry>
        </mxCell>
        <mxCell id="40RxpvVLLGdI-8bN7NcC-66" value="" style="endArrow=none;html=1;rounded=0;fontSize=14;strokeColor=#B20000;strokeWidth=4;elbow=vertical;exitX=0.804;exitY=0;exitDx=0;exitDy=0;exitPerimeter=0;" parent="1" source="40RxpvVLLGdI-8bN7NcC-40" edge="1">
          <mxGeometry width="50" height="50" relative="1" as="geometry">
            <mxPoint x="380" y="350" as="sourcePoint" />
            <mxPoint x="590" y="260" as="targetPoint" />
          </mxGeometry>
        </mxCell>
        <mxCell id="40RxpvVLLGdI-8bN7NcC-67" value="" style="endArrow=none;html=1;rounded=0;fontSize=14;strokeColor=#B20000;strokeWidth=4;elbow=vertical;exitX=0.592;exitY=0.001;exitDx=0;exitDy=0;exitPerimeter=0;" parent="1" source="40RxpvVLLGdI-8bN7NcC-39" edge="1">
          <mxGeometry width="50" height="50" relative="1" as="geometry">
            <mxPoint x="380" y="350" as="sourcePoint" />
            <mxPoint x="283" y="260" as="targetPoint" />
          </mxGeometry>
        </mxCell>
        <mxCell id="40RxpvVLLGdI-8bN7NcC-68" value="" style="endArrow=none;html=1;rounded=0;fontSize=14;strokeColor=#B20000;strokeWidth=4;elbow=vertical;exitX=0.907;exitY=-0.003;exitDx=0;exitDy=0;exitPerimeter=0;" parent="1" source="40RxpvVLLGdI-8bN7NcC-38" edge="1">
          <mxGeometry width="50" height="50" relative="1" as="geometry">
            <mxPoint x="380" y="270" as="sourcePoint" />
            <mxPoint x="95" y="260" as="targetPoint" />
          </mxGeometry>
        </mxCell>
        <mxCell id="40RxpvVLLGdI-8bN7NcC-69" style="edgeStyle=orthogonalEdgeStyle;rounded=0;orthogonalLoop=1;jettySize=auto;html=1;exitX=0.5;exitY=1;exitDx=0;exitDy=0;" parent="1" source="40RxpvVLLGdI-8bN7NcC-47" target="40RxpvVLLGdI-8bN7NcC-47" edge="1">
          <mxGeometry relative="1" as="geometry" />
        </mxCell>
      </root>
    </mxGraphModel>
  </diagram>
  <diagram id="eKXmZZ9uwxxhM9HeZMla" name="Page-3">
    <mxGraphModel dx="1865" dy="1716" grid="1" gridSize="10" guides="1" tooltips="1" connect="1" arrows="1" fold="1" page="1" pageScale="1" pageWidth="827" pageHeight="1169" math="0" shadow="0">
      <root>
        <mxCell id="0" />
        <mxCell id="1" parent="0" />
        <mxCell id="biVL7KdduRU8spbgYRIb-1" value="" style="rounded=0;whiteSpace=wrap;html=1;fillColor=#f5f5f5;fontColor=#333333;strokeColor=#666666;" parent="1" vertex="1">
          <mxGeometry x="110" y="-80" width="840" height="590" as="geometry" />
        </mxCell>
        <mxCell id="dccmdGHtuQlQzMD8QY4i-7" style="edgeStyle=orthogonalEdgeStyle;rounded=0;orthogonalLoop=1;jettySize=auto;html=1;entryX=0.362;entryY=0;entryDx=0;entryDy=0;entryPerimeter=0;fontSize=14;" parent="1" source="biVL7KdduRU8spbgYRIb-2" target="biVL7KdduRU8spbgYRIb-1" edge="1">
          <mxGeometry relative="1" as="geometry" />
        </mxCell>
        <mxCell id="biVL7KdduRU8spbgYRIb-2" value="&lt;b&gt;app.component&lt;/b&gt;" style="rounded=0;whiteSpace=wrap;html=1;" parent="1" vertex="1">
          <mxGeometry x="354" y="-140" width="120" height="30" as="geometry" />
        </mxCell>
        <mxCell id="dccmdGHtuQlQzMD8QY4i-6" style="edgeStyle=orthogonalEdgeStyle;rounded=0;orthogonalLoop=1;jettySize=auto;html=1;entryX=0.359;entryY=0.001;entryDx=0;entryDy=0;entryPerimeter=0;fontSize=14;" parent="1" source="biVL7KdduRU8spbgYRIb-9" target="biVL7KdduRU8spbgYRIb-13" edge="1">
          <mxGeometry relative="1" as="geometry" />
        </mxCell>
        <mxCell id="biVL7KdduRU8spbgYRIb-9" value="&lt;b&gt;&lt;font style=&quot;font-size: 14px;&quot;&gt;shell.component&lt;/font&gt;&lt;/b&gt;" style="rounded=0;whiteSpace=wrap;html=1;" parent="1" vertex="1">
          <mxGeometry x="301" y="-70" width="226" height="30" as="geometry" />
        </mxCell>
        <mxCell id="biVL7KdduRU8spbgYRIb-13" value="" style="rounded=0;whiteSpace=wrap;html=1;fillColor=#d5e8d4;strokeColor=#82b366;" parent="1" vertex="1">
          <mxGeometry x="135" y="-20" width="775" height="520" as="geometry" />
        </mxCell>
        <mxCell id="biVL7KdduRU8spbgYRIb-3" value="" style="rounded=0;whiteSpace=wrap;html=1;fillColor=#ffe6cc;strokeColor=#d79b00;" parent="1" vertex="1">
          <mxGeometry x="145" y="30" width="160" height="460" as="geometry" />
        </mxCell>
        <mxCell id="biVL7KdduRU8spbgYRIb-4" value="&lt;b&gt;Dashboard&lt;/b&gt;" style="rounded=1;whiteSpace=wrap;html=1;" parent="1" vertex="1">
          <mxGeometry x="155" y="70" width="140" height="30" as="geometry" />
        </mxCell>
        <mxCell id="biVL7KdduRU8spbgYRIb-5" value="&lt;b&gt;Products&lt;/b&gt;" style="rounded=1;whiteSpace=wrap;html=1;" parent="1" vertex="1">
          <mxGeometry x="155" y="110" width="140" height="30" as="geometry" />
        </mxCell>
        <mxCell id="biVL7KdduRU8spbgYRIb-6" value="&lt;b&gt;Categories&lt;/b&gt;" style="rounded=1;whiteSpace=wrap;html=1;" parent="1" vertex="1">
          <mxGeometry x="155" y="150" width="140" height="30" as="geometry" />
        </mxCell>
        <mxCell id="biVL7KdduRU8spbgYRIb-7" value="&lt;b&gt;Orders&lt;/b&gt;" style="rounded=1;whiteSpace=wrap;html=1;" parent="1" vertex="1">
          <mxGeometry x="155" y="190" width="140" height="30" as="geometry" />
        </mxCell>
        <mxCell id="biVL7KdduRU8spbgYRIb-8" value="&lt;b&gt;Users&lt;/b&gt;" style="rounded=1;whiteSpace=wrap;html=1;" parent="1" vertex="1">
          <mxGeometry x="155" y="234" width="140" height="30" as="geometry" />
        </mxCell>
        <mxCell id="biVL7KdduRU8spbgYRIb-10" value="&lt;b&gt;sidebar.component&lt;/b&gt;" style="rounded=0;whiteSpace=wrap;html=1;" parent="1" vertex="1">
          <mxGeometry x="160" width="135" height="30" as="geometry" />
        </mxCell>
        <mxCell id="biVL7KdduRU8spbgYRIb-14" value="router-outlet&amp;nbsp; &amp;nbsp; &amp;nbsp;localhost:3000" style="rounded=0;whiteSpace=wrap;html=1;" parent="1" vertex="1">
          <mxGeometry x="613" y="-100" width="270" height="20" as="geometry" />
        </mxCell>
        <mxCell id="biVL7KdduRU8spbgYRIb-15" value="router-outlet&amp;nbsp; &amp;nbsp; localhost:3000/children_component" style="rounded=0;whiteSpace=wrap;html=1;" parent="1" vertex="1">
          <mxGeometry x="640" y="-50" width="216" height="30" as="geometry" />
        </mxCell>
        <mxCell id="dccmdGHtuQlQzMD8QY4i-3" value="&lt;b&gt;Logout&lt;/b&gt;" style="rounded=1;whiteSpace=wrap;html=1;" parent="1" vertex="1">
          <mxGeometry x="155" y="272" width="140" height="30" as="geometry" />
        </mxCell>
        <mxCell id="lfdRLMS3juwGqRQat5OD-1" value="" style="rounded=0;whiteSpace=wrap;html=1;fillColor=#f8cecc;strokeColor=#b85450;" vertex="1" parent="1">
          <mxGeometry x="-170" y="-80" width="242" height="1070" as="geometry" />
        </mxCell>
        <mxCell id="TKLnyRGHIWK2sWOQCyV9-1" value="" style="rounded=0;whiteSpace=wrap;html=1;labelBackgroundColor=#FFFFFF;fontSize=14;strokeColor=#6c8ebf;fillColor=#dae8fc;" parent="1" vertex="1">
          <mxGeometry x="-138.5" y="257" width="180" height="80" as="geometry" />
        </mxCell>
        <mxCell id="TKLnyRGHIWK2sWOQCyV9-2" value="&lt;font style=&quot;font-size: 11px;&quot;&gt;categories-form.component&lt;/font&gt;" style="rounded=0;whiteSpace=wrap;html=1;labelBackgroundColor=#FFFFFF;fontSize=14;strokeColor=default;" parent="1" vertex="1">
          <mxGeometry x="-118.5" y="266" width="140" height="20" as="geometry" />
        </mxCell>
        <mxCell id="8TfpikOVvyB3GqTcN50K-1" value="&lt;font style=&quot;font-size: 11px;&quot;&gt;categories-list.component&lt;/font&gt;" style="rounded=0;whiteSpace=wrap;html=1;labelBackgroundColor=#FFFFFF;fontSize=14;strokeColor=default;" parent="1" vertex="1">
          <mxGeometry x="-118.5" y="294" width="140" height="20" as="geometry" />
        </mxCell>
        <mxCell id="lfdRLMS3juwGqRQat5OD-2" value="pages" style="rounded=0;whiteSpace=wrap;html=1;fontSize=11;" vertex="1" parent="1">
          <mxGeometry x="-108.5" y="-100" width="120" height="20" as="geometry" />
        </mxCell>
        <mxCell id="lfdRLMS3juwGqRQat5OD-3" value="" style="rounded=0;whiteSpace=wrap;html=1;fontSize=11;fillColor=#dae8fc;strokeColor=#6c8ebf;" vertex="1" parent="1">
          <mxGeometry x="-138.5" y="-48" width="180" height="100" as="geometry" />
        </mxCell>
        <mxCell id="lfdRLMS3juwGqRQat5OD-6" value="&lt;font style=&quot;font-size: 11px;&quot;&gt;categories&lt;/font&gt;" style="rounded=0;whiteSpace=wrap;html=1;labelBackgroundColor=#FFFFFF;fontSize=14;strokeColor=#666666;fillColor=#f5f5f5;fontColor=#333333;" vertex="1" parent="1">
          <mxGeometry x="-88.5" y="237" width="80" height="20" as="geometry" />
        </mxCell>
        <mxCell id="lfdRLMS3juwGqRQat5OD-7" value="&lt;span style=&quot;font-size: 11px;&quot;&gt;Dashboard&lt;/span&gt;" style="rounded=0;whiteSpace=wrap;html=1;labelBackgroundColor=#FFFFFF;fontSize=14;strokeColor=#666666;fillColor=#f5f5f5;fontColor=#333333;" vertex="1" parent="1">
          <mxGeometry x="-88.5" y="-70" width="80" height="20" as="geometry" />
        </mxCell>
        <mxCell id="lfdRLMS3juwGqRQat5OD-8" value="&lt;span style=&quot;font-size: 11px;&quot;&gt;dashboard.component&lt;/span&gt;" style="rounded=0;whiteSpace=wrap;html=1;labelBackgroundColor=#FFFFFF;fontSize=14;strokeColor=default;" vertex="1" parent="1">
          <mxGeometry x="-118.5" y="-40" width="140" height="20" as="geometry" />
        </mxCell>
        <mxCell id="lfdRLMS3juwGqRQat5OD-9" style="edgeStyle=orthogonalEdgeStyle;rounded=0;orthogonalLoop=1;jettySize=auto;html=1;fontSize=11;" edge="1" parent="1" source="biVL7KdduRU8spbgYRIb-6" target="TKLnyRGHIWK2sWOQCyV9-1">
          <mxGeometry relative="1" as="geometry">
            <Array as="points">
              <mxPoint x="113" y="165" />
              <mxPoint x="113" y="290" />
            </Array>
          </mxGeometry>
        </mxCell>
        <mxCell id="lfdRLMS3juwGqRQat5OD-18" value="" style="rounded=0;whiteSpace=wrap;html=1;fontSize=11;fillColor=#dae8fc;strokeColor=#6c8ebf;" vertex="1" parent="1">
          <mxGeometry x="-138.5" y="112" width="180" height="100" as="geometry" />
        </mxCell>
        <mxCell id="lfdRLMS3juwGqRQat5OD-19" value="&lt;span style=&quot;font-size: 11px;&quot;&gt;Products&lt;/span&gt;" style="rounded=0;whiteSpace=wrap;html=1;labelBackgroundColor=#FFFFFF;fontSize=14;strokeColor=#666666;fillColor=#f5f5f5;fontColor=#333333;" vertex="1" parent="1">
          <mxGeometry x="-88.5" y="90" width="80" height="20" as="geometry" />
        </mxCell>
        <mxCell id="lfdRLMS3juwGqRQat5OD-21" value="" style="rounded=0;whiteSpace=wrap;html=1;fontSize=11;fillColor=#dae8fc;strokeColor=#6c8ebf;" vertex="1" parent="1">
          <mxGeometry x="-139" y="380" width="180" height="100" as="geometry" />
        </mxCell>
        <mxCell id="lfdRLMS3juwGqRQat5OD-22" value="&lt;span style=&quot;font-size: 11px;&quot;&gt;Orders&lt;/span&gt;" style="rounded=0;whiteSpace=wrap;html=1;labelBackgroundColor=#FFFFFF;fontSize=14;strokeColor=#666666;fillColor=#f5f5f5;fontColor=#333333;" vertex="1" parent="1">
          <mxGeometry x="-89" y="358" width="80" height="20" as="geometry" />
        </mxCell>
        <mxCell id="lfdRLMS3juwGqRQat5OD-23" value="&lt;span style=&quot;font-size: 11px;&quot;&gt;dashboard.component&lt;/span&gt;" style="rounded=0;whiteSpace=wrap;html=1;labelBackgroundColor=#FFFFFF;fontSize=14;strokeColor=default;" vertex="1" parent="1">
          <mxGeometry x="-119" y="388" width="140" height="20" as="geometry" />
        </mxCell>
        <mxCell id="lfdRLMS3juwGqRQat5OD-24" value="" style="rounded=0;whiteSpace=wrap;html=1;fontSize=11;fillColor=#dae8fc;strokeColor=#6c8ebf;" vertex="1" parent="1">
          <mxGeometry x="-139" y="522" width="180" height="100" as="geometry" />
        </mxCell>
        <mxCell id="lfdRLMS3juwGqRQat5OD-25" value="&lt;span style=&quot;font-size: 11px;&quot;&gt;Users&lt;/span&gt;" style="rounded=0;whiteSpace=wrap;html=1;labelBackgroundColor=#FFFFFF;fontSize=14;strokeColor=#666666;fillColor=#f5f5f5;fontColor=#333333;" vertex="1" parent="1">
          <mxGeometry x="-89" y="500" width="80" height="20" as="geometry" />
        </mxCell>
        <mxCell id="lfdRLMS3juwGqRQat5OD-26" value="" style="rounded=0;whiteSpace=wrap;html=1;labelBackgroundColor=#FFFFFF;fontSize=14;strokeColor=default;" vertex="1" parent="1">
          <mxGeometry x="-119" y="530" width="140" height="20" as="geometry" />
        </mxCell>
        <mxCell id="lfdRLMS3juwGqRQat5OD-27" value="" style="rounded=0;whiteSpace=wrap;html=1;fontSize=11;fillColor=#dae8fc;strokeColor=#6c8ebf;" vertex="1" parent="1">
          <mxGeometry x="-139" y="692" width="180" height="100" as="geometry" />
        </mxCell>
        <mxCell id="lfdRLMS3juwGqRQat5OD-28" value="&lt;span style=&quot;font-size: 11px;&quot;&gt;Logout&lt;/span&gt;" style="rounded=0;whiteSpace=wrap;html=1;labelBackgroundColor=#FFFFFF;fontSize=14;strokeColor=#666666;fillColor=#f5f5f5;fontColor=#333333;" vertex="1" parent="1">
          <mxGeometry x="-89" y="670" width="80" height="20" as="geometry" />
        </mxCell>
        <mxCell id="lfdRLMS3juwGqRQat5OD-29" value="" style="rounded=0;whiteSpace=wrap;html=1;labelBackgroundColor=#FFFFFF;fontSize=14;strokeColor=default;" vertex="1" parent="1">
          <mxGeometry x="-119" y="700" width="140" height="20" as="geometry" />
        </mxCell>
        <mxCell id="y4ZUSOej08WgzMxHnMIS-1" style="edgeStyle=orthogonalEdgeStyle;rounded=0;orthogonalLoop=1;jettySize=auto;html=1;entryX=1;entryY=0.5;entryDx=0;entryDy=0;fontSize=11;" edge="1" parent="1" source="biVL7KdduRU8spbgYRIb-4" target="lfdRLMS3juwGqRQat5OD-3">
          <mxGeometry relative="1" as="geometry" />
        </mxCell>
      </root>
    </mxGraphModel>
  </diagram>
</mxfile>
